<?xml version="1.0" standalone="no"?>
<!DOCTYPE svg PUBLIC "-//W3C//DTD SVG 20010904//EN"
 "http://www.w3.org/TR/2001/REC-SVG-20010904/DTD/svg10.dtd">
<svg version="1.0" xmlns="http://www.w3.org/2000/svg"
 width="400.000000pt" height="400.000000pt" viewBox="0 0 400.000000 400.000000"
 preserveAspectRatio="xMidYMid meet">

<g transform="translate(0.000000,400.000000) scale(0.100000,-0.100000)"
fill="#000000" stroke="none">
<path d="M1810 3930 c-669 -73 -1244 -469 -1540 -1059 -70 -140 -112 -253
-148 -397 -43 -171 -56 -286 -56 -479 0 -329 63 -587 215 -885 186 -362 473
-648 839 -834 429 -218 915 -271 1370 -151 1192 317 1791 1639 1242 2740 -280
562 -807 948 -1432 1050 -118 19 -377 27 -490 15z m529 -99 c659 -124 1205
-596 1420 -1227 301 -884 -90 -1845 -922 -2264 -446 -224 -953 -262 -1425
-105 -758 251 -1272 965 -1272 1765 0 715 409 1366 1052 1675 180 86 379 146
588 175 114 16 431 5 559 -19z"/>
<path d="M700 2100 l0 -800 -100 0 -100 0 0 -25 0 -25 800 0 800 0 0 25 0 25
-560 0 -560 0 0 800 0 800 -140 0 -140 0 0 -800z m120 540 l0 -60 -40 0 -40 0
0 60 0 60 40 0 40 0 0 -60z m0 -300 l0 -60 -40 0 -40 0 0 60 0 60 40 0 40 0 0
-60z m0 -300 l0 -60 -40 0 -40 0 0 60 0 60 40 0 40 0 0 -60z m0 -300 l0 -60
-40 0 -40 0 0 60 0 60 40 0 40 0 0 -60z m0 -300 l0 -60 -40 0 -40 0 0 60 0 60
40 0 40 0 0 -60z"/>
<path d="M3120 2095 l0 -195 40 0 40 0 0 55 c0 30 4 55 9 55 5 0 31 -25 56
-55 47 -55 48 -55 103 -55 l56 0 -74 76 -75 76 70 64 69 64 -49 0 c-45 -1 -55
-5 -105 -50 l-55 -49 -3 104 -3 105 -39 0 -40 0 0 -195z"/>
<path d="M2870 2220 c0 -33 -3 -40 -20 -40 -16 0 -20 -7 -20 -30 0 -23 4 -30
20 -30 18 0 20 -7 20 -62 0 -94 14 -134 52 -147 17 -6 53 -11 79 -11 48 0 49
1 49 30 0 27 -3 30 -33 30 -48 0 -57 15 -57 91 l0 68 47 3 c44 3 48 5 48 28 0
23 -4 25 -47 28 l-48 3 0 40 0 39 -45 0 -45 0 0 -40z"/>
<path d="M2244 2164 c-91 -45 -90 -205 2 -249 49 -23 134 -20 175 8 43 29 59
60 59 117 0 57 -16 88 -59 117 -41 27 -129 31 -177 7z m130 -66 c9 -12 16 -38
16 -58 0 -69 -57 -104 -102 -63 -24 21 -25 99 -1 125 23 25 68 23 87 -4z"/>
<path d="M2583 2170 c-27 -11 -43 -40 -43 -79 0 -39 35 -67 96 -76 61 -9 74
-14 74 -31 0 -29 -45 -38 -110 -22 l-60 15 0 -32 c0 -28 4 -33 31 -39 56 -11
149 -6 178 9 31 16 41 33 41 71 0 55 -22 70 -132 89 -28 4 -38 11 -38 24 0 25
38 34 92 21 59 -13 58 -14 58 19 0 21 -6 30 -22 35 -34 9 -140 6 -165 -4z"/>
<path d="M3462 2064 c3 -112 4 -117 31 -140 35 -30 89 -32 135 -4 32 20 32 20
32 0 0 -17 7 -20 40 -20 l40 0 0 140 0 140 -39 0 -39 0 -4 -91 c-3 -81 -6 -93
-27 -110 -28 -23 -45 -24 -65 -3 -12 12 -16 37 -16 110 l0 94 -46 0 -46 0 4
-116z"/>
</g>
</svg>
